<?xml version="1.0" standalone="no"?>
<!DOCTYPE svg PUBLIC "-//W3C//DTD SVG 20010904//EN"
 "http://www.w3.org/TR/2001/REC-SVG-20010904/DTD/svg10.dtd">
<svg version="1.0" xmlns="http://www.w3.org/2000/svg"
 width="856.000000pt" height="1280.000000pt" viewBox="0 0 856.000000 1280.000000"
 preserveAspectRatio="xMidYMid meet">
<metadata>
Created by potrace 1.15, written by Peter Selinger 2001-2017
</metadata>
<g transform="translate(0.000000,1280.000000) scale(0.100000,-0.100000)"
fill="#000000" stroke="none">
<path d="M4785 12794 c-16 -2 -79 -9 -140 -14 -657 -64 -1338 -342 -1865 -762
-410 -327 -719 -715 -960 -1203 -179 -365 -281 -690 -341 -1095 -26 -174 -37
-602 -20 -786 43 -458 162 -872 372 -1294 174 -350 400 -660 686 -943 l130
-127 -42 -25 c-77 -44 -143 -103 -188 -167 -40 -57 -132 -254 -487 -1043 -37
-82 -279 -618 -538 -1190 -1164 -2575 -1360 -3013 -1373 -3065 -17 -70 -17
-199 0 -270 25 -107 88 -219 165 -296 89 -89 59 -74 696 -362 289 -130 336
-145 450 -146 106 0 172 15 280 66 67 32 101 57 161 117 85 85 82 78 272 501
63 140 264 586 447 990 183 404 363 803 400 885 37 83 249 550 470 1040 784
1735 849 1881 865 1940 8 32 15 96 15 140 l0 81 88 -17 c214 -44 409 -62 662
-62 248 -1 366 8 585 44 730 121 1421 474 1940 994 784 783 1167 1926 1009
3005 -79 541 -278 1056 -579 1505 -351 523 -810 919 -1390 1201 -369 180 -717
283 -1150 340 -104 14 -556 27 -620 18z" fill="currentColor"/>
</g>
</svg>
